<svg width="29" height="29" viewBox="0 0 29 29" fill="none" xmlns="http://www.w3.org/2000/svg">
<circle cx="14.5" cy="14.5" r="14.5" fill="#F3F1F0"/>
<path d="M18.7448 4.81867C18.9316 4.72539 19.1305 4.73737 19.2682 4.7718C19.3567 4.79411 19.4287 4.85972 19.4645 4.94367C19.8223 5.78829 18.8253 6.94588 18.2535 7.43977C18.7115 8.4878 18.3351 10.2778 18.0895 11.0423C23.111 14.3903 22.3225 21.0714 21.2574 24.1507C21.2269 24.2381 21.1279 24.2784 21.0426 24.2425C14.6361 21.5169 13.7249 15.0858 14.0768 12.1888C14.8684 11.7247 16.5496 10.6329 16.943 9.97785C17.1781 9.58571 17.1907 9.01709 17.1276 8.51887C17.0561 7.95599 16.7937 7.37328 16.2506 7.2093C16.0148 7.13832 15.7252 7.11578 15.3873 7.19367C14.3231 7.43968 13.749 8.99612 13.4215 10.8792V10.805C13.0982 8.94487 12.5324 7.40766 11.4821 7.16438C11.1532 7.08848 10.8703 7.10922 10.6393 7.17707C10.0953 7.33726 9.83247 7.92092 9.76233 8.48371C9.70149 8.97325 9.7157 9.52969 9.94592 9.91438C10.3342 10.5615 11.9935 11.6404 12.775 12.0989C11.8756 15.2751 11.8112 16.3528 13.3698 22.7142C13.3952 22.819 13.3149 22.9238 13.2076 22.9134C10.2076 22.6137 6.43662 17.7682 8.81409 10.9671C8.5716 10.2118 8.19959 8.44195 8.65198 7.40656C8.08777 6.91862 7.10509 5.77674 7.45667 4.9427C7.49227 4.85863 7.56439 4.79394 7.65295 4.7718C7.78881 4.73815 7.98402 4.726 8.1676 4.8177C8.49099 4.97991 9.05791 5.78847 11.0778 5.46516C11.5091 5.41121 12.5813 5.30311 13.4215 5.30305V5.30988C14.2727 5.30992 15.3594 5.41933 15.7965 5.47395C17.8428 5.80123 18.4172 4.98283 18.7448 4.81867Z" fill="#0F0702"/>
<circle cx="15.1231" cy="9.1291" r="0.692776" fill="#0F0702"/>
<circle cx="11.5967" cy="9.12929" r="0.692776" fill="#0F0702"/>
</svg>
