<svg xmlns="http://www.w3.org/2000/svg" width="29" height="29" fill="none" viewBox="0 0 29 29"><circle cx="14.5" cy="14.5" r="14.5" fill="#FFCC6A"/><path fill="#0F0702" d="M18.7447 4.81873C18.9316 4.72545 19.1304 4.73742 19.2681 4.77185C19.3566 4.79417 19.4286 4.85977 19.4644 4.94373C19.8222 5.78834 18.8252 6.94593 18.2535 7.43982C18.7115 8.48785 18.335 10.2779 18.0894 11.0424C23.111 14.3904 22.3224 21.0714 21.2574 24.1508C21.2269 24.2381 21.1279 24.2784 21.0425 24.2426C14.6361 21.517 13.7249 15.0859 14.0767 12.1888C14.8683 11.7247 16.5496 10.633 16.9429 9.97791C17.178 9.58576 17.1907 9.01714 17.1275 8.51892C17.056 7.95604 16.7936 7.37333 16.2505 7.20935C16.0148 7.13838 15.7251 7.11583 15.3873 7.19373C14.323 7.43973 13.749 8.99618 13.4214 10.8793V10.8051C13.0982 8.94493 12.5323 7.40771 11.482 7.16443C11.1531 7.08853 10.8702 7.10927 10.6392 7.17712C10.0953 7.33731 9.83241 7.92098 9.76227 8.48376C9.70142 8.97331 9.71564 9.52975 9.94586 9.91443C10.3342 10.5615 11.9934 11.6404 12.775 12.099C11.8756 15.2752 11.8111 16.3529 13.3697 22.7142C13.3951 22.819 13.3149 22.9239 13.2076 22.9135C10.2076 22.6138 6.43656 17.7682 8.81403 10.9672C8.57153 10.2119 8.19953 8.442 8.65192 7.40662C8.0877 6.91868 7.10503 5.77679 7.4566 4.94275C7.49221 4.85868 7.56433 4.794 7.65289 4.77185C7.78875 4.73821 7.98396 4.72605 8.16754 4.81775C8.49093 4.97996 9.05785 5.78852 11.0777 5.46521C11.5091 5.41127 12.5812 5.30317 13.4214 5.3031V5.30994C14.2726 5.30997 15.3593 5.41939 15.7964 5.474C17.8427 5.80129 18.4171 4.98289 18.7447 4.81873Z"/><circle cx="15.123" cy="9.129" r=".693" fill="#0F0702"/><circle cx="11.597" cy="9.129" r=".693" fill="#0F0702"/></svg>